<mxfile host="app.diagrams.net" agent="Mozilla/5.0 (Windows NT 10.0; Win64; x64) AppleWebKit/537.36 (KHTML, like Gecko) Chrome/139.0.0.0 Safari/537.36" version="28.1.1">
  <diagram name="Seite-1" id="LjqmC4t2StHDKjXmHo9s">
    <mxGraphModel dx="1188" dy="626" grid="1" gridSize="10" guides="1" tooltips="1" connect="1" arrows="1" fold="1" page="1" pageScale="1" pageWidth="827" pageHeight="1169" math="0" shadow="0">
      <root>
        <mxCell id="0" />
        <mxCell id="1" parent="0" />
        <mxCell id="UULmLKuyVT8X7VuQJy-t-1" value="" style="rounded=1;whiteSpace=wrap;html=1;" vertex="1" parent="1">
          <mxGeometry x="80" y="40" width="700" height="510" as="geometry" />
        </mxCell>
        <mxCell id="UULmLKuyVT8X7VuQJy-t-2" value="" style="rounded=1;whiteSpace=wrap;html=1;" vertex="1" parent="1">
          <mxGeometry x="120" y="70" width="340" height="450" as="geometry" />
        </mxCell>
        <mxCell id="UULmLKuyVT8X7VuQJy-t-3" value="" style="rounded=1;whiteSpace=wrap;html=1;" vertex="1" parent="1">
          <mxGeometry x="480" y="70" width="270" height="140" as="geometry" />
        </mxCell>
        <mxCell id="UULmLKuyVT8X7VuQJy-t-4" value="" style="rounded=1;whiteSpace=wrap;html=1;" vertex="1" parent="1">
          <mxGeometry x="480" y="380" width="270" height="140" as="geometry" />
        </mxCell>
        <mxCell id="UULmLKuyVT8X7VuQJy-t-5" value="" style="rounded=1;whiteSpace=wrap;html=1;" vertex="1" parent="1">
          <mxGeometry x="480" y="220" width="270" height="150" as="geometry" />
        </mxCell>
        <mxCell id="UULmLKuyVT8X7VuQJy-t-7" value="" style="rounded=1;whiteSpace=wrap;html=1;" vertex="1" parent="1">
          <mxGeometry x="140" y="90" width="300" height="40" as="geometry" />
        </mxCell>
        <mxCell id="UULmLKuyVT8X7VuQJy-t-9" value="" style="rounded=1;whiteSpace=wrap;html=1;" vertex="1" parent="1">
          <mxGeometry x="160" y="140" width="280" height="40" as="geometry" />
        </mxCell>
        <mxCell id="UULmLKuyVT8X7VuQJy-t-10" value="" style="rounded=1;whiteSpace=wrap;html=1;" vertex="1" parent="1">
          <mxGeometry x="160" y="190" width="280" height="40" as="geometry" />
        </mxCell>
        <mxCell id="UULmLKuyVT8X7VuQJy-t-11" value="" style="rounded=1;whiteSpace=wrap;html=1;" vertex="1" parent="1">
          <mxGeometry x="160" y="270" width="280" height="40" as="geometry" />
        </mxCell>
        <mxCell id="UULmLKuyVT8X7VuQJy-t-12" value="" style="rounded=1;whiteSpace=wrap;html=1;" vertex="1" parent="1">
          <mxGeometry x="140" y="360" width="300" height="40" as="geometry" />
        </mxCell>
        <mxCell id="UULmLKuyVT8X7VuQJy-t-13" value="&lt;b&gt;&lt;font style=&quot;font-size: 23px;&quot;&gt;...&lt;/font&gt;&lt;/b&gt;" style="text;html=1;align=center;verticalAlign=middle;whiteSpace=wrap;rounded=0;" vertex="1" parent="1">
          <mxGeometry x="270" y="230" width="60" height="30" as="geometry" />
        </mxCell>
        <mxCell id="UULmLKuyVT8X7VuQJy-t-14" value="&lt;b&gt;&lt;font style=&quot;font-size: 23px;&quot;&gt;...&lt;/font&gt;&lt;/b&gt;" style="text;html=1;align=center;verticalAlign=middle;whiteSpace=wrap;rounded=0;" vertex="1" parent="1">
          <mxGeometry x="260" y="320" width="60" height="30" as="geometry" />
        </mxCell>
        <mxCell id="UULmLKuyVT8X7VuQJy-t-15" value="&lt;b&gt;&lt;font style=&quot;font-size: 21px;&quot;&gt;Folder A&lt;/font&gt;&lt;/b&gt;" style="text;html=1;align=center;verticalAlign=middle;whiteSpace=wrap;rounded=0;" vertex="1" parent="1">
          <mxGeometry x="190" y="95" width="200" height="30" as="geometry" />
        </mxCell>
        <mxCell id="UULmLKuyVT8X7VuQJy-t-16" value="&lt;b&gt;&lt;font style=&quot;font-size: 21px;&quot;&gt;Folder B&lt;/font&gt;&lt;/b&gt;" style="text;html=1;align=center;verticalAlign=middle;whiteSpace=wrap;rounded=0;" vertex="1" parent="1">
          <mxGeometry x="214" y="145" width="200" height="30" as="geometry" />
        </mxCell>
        <mxCell id="UULmLKuyVT8X7VuQJy-t-17" value="&lt;b&gt;&lt;font style=&quot;font-size: 21px;&quot;&gt;Folder C&lt;/font&gt;&lt;/b&gt;" style="text;html=1;align=center;verticalAlign=middle;whiteSpace=wrap;rounded=0;" vertex="1" parent="1">
          <mxGeometry x="214" y="195" width="200" height="30" as="geometry" />
        </mxCell>
        <mxCell id="UULmLKuyVT8X7VuQJy-t-18" value="&lt;b&gt;&lt;font style=&quot;font-size: 21px;&quot;&gt;Folder Z&lt;/font&gt;&lt;/b&gt;" style="text;html=1;align=center;verticalAlign=middle;whiteSpace=wrap;rounded=0;" vertex="1" parent="1">
          <mxGeometry x="190" y="365" width="200" height="30" as="geometry" />
        </mxCell>
        <mxCell id="UULmLKuyVT8X7VuQJy-t-19" value="&lt;b&gt;&lt;font style=&quot;font-size: 21px;&quot;&gt;File A&lt;/font&gt;&lt;/b&gt;" style="text;html=1;align=center;verticalAlign=middle;whiteSpace=wrap;rounded=0;" vertex="1" parent="1">
          <mxGeometry x="200" y="275" width="200" height="30" as="geometry" />
        </mxCell>
        <mxCell id="UULmLKuyVT8X7VuQJy-t-20" value="" style="sketch=0;pointerEvents=1;shadow=0;dashed=0;html=1;strokeColor=none;fillColor=#505050;labelPosition=center;verticalLabelPosition=bottom;verticalAlign=top;outlineConnect=0;align=center;shape=mxgraph.office.communications.exchange_active_sync;fillColor=#2072B8;" vertex="1" parent="1">
          <mxGeometry x="401" y="95" width="29" height="30" as="geometry" />
        </mxCell>
        <mxCell id="UULmLKuyVT8X7VuQJy-t-21" value="" style="sketch=0;pointerEvents=1;shadow=0;dashed=0;html=1;strokeColor=none;fillColor=#505050;labelPosition=center;verticalLabelPosition=bottom;verticalAlign=top;outlineConnect=0;align=center;shape=mxgraph.office.communications.exchange_active_sync;fillColor=#2072B8;" vertex="1" parent="1">
          <mxGeometry x="401" y="195" width="29" height="30" as="geometry" />
        </mxCell>
        <mxCell id="UULmLKuyVT8X7VuQJy-t-22" value="" style="sketch=0;pointerEvents=1;shadow=0;dashed=0;html=1;strokeColor=none;fillColor=#505050;labelPosition=center;verticalLabelPosition=bottom;verticalAlign=top;outlineConnect=0;align=center;shape=mxgraph.office.communications.exchange_active_sync;fillColor=#2072B8;" vertex="1" parent="1">
          <mxGeometry x="401" y="145" width="29" height="30" as="geometry" />
        </mxCell>
        <mxCell id="UULmLKuyVT8X7VuQJy-t-24" value="" style="sketch=0;pointerEvents=1;shadow=0;dashed=0;html=1;strokeColor=none;fillColor=#505050;labelPosition=center;verticalLabelPosition=bottom;verticalAlign=top;outlineConnect=0;align=center;shape=mxgraph.office.communications.exchange_active_sync;fillColor=#2072B8;" vertex="1" parent="1">
          <mxGeometry x="399" y="275" width="29" height="30" as="geometry" />
        </mxCell>
        <mxCell id="UULmLKuyVT8X7VuQJy-t-25" value="" style="sketch=0;pointerEvents=1;shadow=0;dashed=0;html=1;strokeColor=none;fillColor=#505050;labelPosition=center;verticalLabelPosition=bottom;verticalAlign=top;outlineConnect=0;align=center;shape=mxgraph.office.communications.exchange_active_sync;fillColor=#2072B8;" vertex="1" parent="1">
          <mxGeometry x="401" y="365" width="29" height="30" as="geometry" />
        </mxCell>
        <mxCell id="UULmLKuyVT8X7VuQJy-t-26" value="" style="rounded=1;whiteSpace=wrap;html=1;" vertex="1" parent="1">
          <mxGeometry x="145" y="95" width="30" height="30" as="geometry" />
        </mxCell>
        <mxCell id="UULmLKuyVT8X7VuQJy-t-27" value="" style="rounded=1;whiteSpace=wrap;html=1;" vertex="1" parent="1">
          <mxGeometry x="170" y="195" width="30" height="30" as="geometry" />
        </mxCell>
        <mxCell id="UULmLKuyVT8X7VuQJy-t-28" value="" style="triangle;whiteSpace=wrap;html=1;strokeColor=default;fillColor=#000000;" vertex="1" parent="1">
          <mxGeometry x="175" y="197.5" width="20" height="25" as="geometry" />
        </mxCell>
        <mxCell id="UULmLKuyVT8X7VuQJy-t-29" value="" style="triangle;whiteSpace=wrap;html=1;strokeColor=default;fillColor=#000000;rotation=90;" vertex="1" parent="1">
          <mxGeometry x="150" y="97.5" width="20" height="25" as="geometry" />
        </mxCell>
        <mxCell id="UULmLKuyVT8X7VuQJy-t-30" value="" style="rounded=1;whiteSpace=wrap;html=1;" vertex="1" parent="1">
          <mxGeometry x="170" y="145" width="30" height="30" as="geometry" />
        </mxCell>
        <mxCell id="UULmLKuyVT8X7VuQJy-t-31" value="" style="triangle;whiteSpace=wrap;html=1;strokeColor=default;fillColor=#000000;" vertex="1" parent="1">
          <mxGeometry x="175" y="147.5" width="20" height="25" as="geometry" />
        </mxCell>
        <mxCell id="UULmLKuyVT8X7VuQJy-t-32" value="" style="rounded=1;whiteSpace=wrap;html=1;" vertex="1" parent="1">
          <mxGeometry x="145" y="365" width="30" height="30" as="geometry" />
        </mxCell>
        <mxCell id="UULmLKuyVT8X7VuQJy-t-33" value="" style="triangle;whiteSpace=wrap;html=1;strokeColor=default;fillColor=#000000;" vertex="1" parent="1">
          <mxGeometry x="150" y="367.5" width="20" height="25" as="geometry" />
        </mxCell>
        <mxCell id="UULmLKuyVT8X7VuQJy-t-34" value="&lt;b&gt;&lt;font style=&quot;font-size: 21px;&quot;&gt;FileSystem&lt;/font&gt;&lt;/b&gt;" style="text;html=1;align=center;verticalAlign=middle;whiteSpace=wrap;rounded=0;" vertex="1" parent="1">
          <mxGeometry x="190" y="490" width="200" height="30" as="geometry" />
        </mxCell>
        <mxCell id="UULmLKuyVT8X7VuQJy-t-35" value="&lt;b&gt;&lt;font style=&quot;font-size: 21px;&quot;&gt;FolderStatistics&lt;/font&gt;&lt;/b&gt;" style="text;html=1;align=center;verticalAlign=middle;whiteSpace=wrap;rounded=0;" vertex="1" parent="1">
          <mxGeometry x="515" y="40" width="200" height="30" as="geometry" />
        </mxCell>
        <mxCell id="UULmLKuyVT8X7VuQJy-t-36" value="" style="rounded=1;whiteSpace=wrap;html=1;" vertex="1" parent="1">
          <mxGeometry x="490" y="80" width="120" height="60" as="geometry" />
        </mxCell>
        <mxCell id="UULmLKuyVT8X7VuQJy-t-37" value="" style="rounded=1;whiteSpace=wrap;html=1;" vertex="1" parent="1">
          <mxGeometry x="490" y="145" width="120" height="60" as="geometry" />
        </mxCell>
        <mxCell id="UULmLKuyVT8X7VuQJy-t-38" value="" style="rounded=1;whiteSpace=wrap;html=1;" vertex="1" parent="1">
          <mxGeometry x="620" y="80" width="120" height="60" as="geometry" />
        </mxCell>
        <mxCell id="UULmLKuyVT8X7VuQJy-t-39" value="" style="rounded=1;whiteSpace=wrap;html=1;" vertex="1" parent="1">
          <mxGeometry x="620" y="140" width="120" height="60" as="geometry" />
        </mxCell>
        <mxCell id="UULmLKuyVT8X7VuQJy-t-40" value="&lt;b&gt;&lt;font style=&quot;font-size: 19px;&quot;&gt;# Folders&lt;/font&gt;&lt;/b&gt;" style="text;html=1;align=center;verticalAlign=middle;whiteSpace=wrap;rounded=0;" vertex="1" parent="1">
          <mxGeometry x="450" y="95" width="200" height="30" as="geometry" />
        </mxCell>
        <mxCell id="UULmLKuyVT8X7VuQJy-t-41" value="&lt;b&gt;&lt;font style=&quot;font-size: 19px;&quot;&gt;# Files&lt;/font&gt;&lt;/b&gt;" style="text;html=1;align=center;verticalAlign=middle;whiteSpace=wrap;rounded=0;" vertex="1" parent="1">
          <mxGeometry x="580" y="95" width="200" height="30" as="geometry" />
        </mxCell>
        <mxCell id="UULmLKuyVT8X7VuQJy-t-42" value="&lt;b&gt;&lt;font style=&quot;font-size: 18px;&quot;&gt;# Unsynced Folders&lt;/font&gt;&lt;/b&gt;" style="text;html=1;align=center;verticalAlign=middle;whiteSpace=wrap;rounded=0;" vertex="1" parent="1">
          <mxGeometry x="465" y="160" width="170" height="30" as="geometry" />
        </mxCell>
        <mxCell id="UULmLKuyVT8X7VuQJy-t-43" value="&lt;b&gt;&lt;font style=&quot;font-size: 19px;&quot;&gt;# Unsynced Files&lt;/font&gt;&lt;/b&gt;" style="text;html=1;align=center;verticalAlign=middle;whiteSpace=wrap;rounded=0;" vertex="1" parent="1">
          <mxGeometry x="605" y="160" width="150" height="30" as="geometry" />
        </mxCell>
        <mxCell id="UULmLKuyVT8X7VuQJy-t-45" value="&lt;font style=&quot;font-size: 21px; color: rgb(255, 0, 0);&quot;&gt;&lt;b&gt;Placeholder&lt;/b&gt;&lt;/font&gt;" style="text;html=1;align=center;verticalAlign=middle;whiteSpace=wrap;rounded=0;rotation=45;" vertex="1" parent="1">
          <mxGeometry x="585" y="435" width="60" height="30" as="geometry" />
        </mxCell>
        <mxCell id="UULmLKuyVT8X7VuQJy-t-46" value="&lt;font style=&quot;font-size: 21px; color: rgb(255, 0, 0);&quot;&gt;&lt;b&gt;Placeholder&lt;/b&gt;&lt;/font&gt;" style="text;html=1;align=center;verticalAlign=middle;whiteSpace=wrap;rounded=0;rotation=45;" vertex="1" parent="1">
          <mxGeometry x="584.9998051533946" y="279.9998051533946" width="60" height="30" as="geometry" />
        </mxCell>
      </root>
    </mxGraphModel>
  </diagram>
</mxfile>
